<svg width="24" height="24" viewBox="0 0 24 24" fill="none" xmlns="http://www.w3.org/2000/svg">
<path d="M-nan -nanL19.8333 2.33333H18.6667C18.0223 2.33333 17.5 1.811 17.5 1.16667C17.5 0.857247 17.3771 0.560501 17.1583 0.341709C16.9395 0.122916 16.6428 0 16.3333 0C16.0239 0 15.7272 0.122916 15.5084 0.341709C15.2896 0.560501 15.1667 0.857247 15.1667 1.16667C15.1667 1.811 14.6443 2.33333 14 2.33333H9.33333C8.689 2.33333 8.16667 1.811 8.16667 1.16667C8.16667 0.857247 8.04375 0.560501 7.82496 0.341709C7.60617 0.122916 7.30942 0 7 0C6.69058 0 6.39384 0.122916 6.17504 0.341709C5.95625 0.560501 5.83333 0.857247 5.83333 1.16667C5.83333 1.811 5.311 2.33333 4.66667 2.33333H3.5C2.57174 2.33333 1.6815 2.70208 1.02513 3.35846C0.368749 4.01484 0 4.90508 0 5.83333V19.8333C0 20.7616 0.368749 21.6518 1.02513 22.3082C1.6815 22.9646 2.57174 23.3333 3.5 23.3333H19.8333C20.7616 23.3333 21.6518 22.9646 22.3082 22.3082C22.9646 21.6518 23.3333 20.7616 23.3333 19.8333V5.83333C23.3333 4.90508 22.9646 4.01484 22.3082 3.35846C21.6518 2.70208 20.7616 2.33333 19.8333 2.33333L-nan -nanZM21 19.8333C21 20.1428 20.8771 20.4395 20.6583 20.6583C20.4395 20.8771 20.1428 21 19.8333 21H3.5C3.19058 21 2.89383 20.8771 2.67504 20.6583C2.45625 20.4395 2.33333 20.1428 2.33333 19.8333C2.33333 15.323 5.98968 11.6667 10.5 11.6667H12.8333C17.3437 11.6667 21 15.323 21 19.8333ZM21 5.83333C21 7.76633 19.433 9.33333 17.5 9.33333H5.83333C3.90033 9.33333 2.33333 7.76633 2.33333 5.83333C2.33333 5.52391 2.45625 5.22717 2.67504 5.00838C2.89383 4.78958 3.19058 4.66667 3.5 4.66667H4.66667C5.311 4.66667 5.83333 5.189 5.83333 5.83333C5.83333 6.14275 5.95625 6.4395 6.17504 6.65829C6.39384 6.87708 6.69058 7 7 7C7.30942 7 7.60617 6.87708 7.82496 6.65829C8.04375 6.4395 8.16667 6.14275 8.16667 5.83333C8.16667 5.189 8.689 4.66667 9.33333 4.66667H14C14.6443 4.66667 15.1667 5.189 15.1667 5.83333C15.1667 6.14275 15.2896 6.4395 15.5084 6.65829C15.7272 6.87708 16.0239 7 16.3333 7C16.6428 7 16.9395 6.87708 17.1583 6.65829C17.3771 6.4395 17.5 6.14275 17.5 5.83333C17.5 5.189 18.0223 4.66667 18.6667 4.66667H19.8333C20.1428 4.66667 20.4395 4.78958 20.6583 5.00838C20.8771 5.22717 21 5.52391 21 5.83333Z" fill="white"/>
</svg>
